<svg version="1.0" xmlns="http://www.w3.org/2000/svg"
 width="300.000000pt" height="203.000000pt" viewBox="0 0 300.000000 203.000000"
 preserveAspectRatio="xMidYMid meet">
<g transform="translate(0.000000,203.000000) scale(0.100000,-0.100000)"
fill="#000000" stroke="none">
<path d="M2477 1685 c-44 -17 -121 -71 -154 -109 -59 -67 -70 -180 -28 -269
28 -60 70 -112 203 -255 53 -56 105 -122 116 -145 42 -91 58 -205 36 -248 -6
-10 -24 -26 -40 -34 -16 -8 -37 -28 -46 -44 -10 -17 -40 -42 -67 -57 -45 -24
-56 -26 -142 -22 -115 5 -137 18 -174 102 -33 72 -75 118 -140 151 -82 41
-292 102 -416 120 -199 29 -602 40 -730 19 -37 -6 -206 -47 -245 -59 -15 -5
-20 5 -30 57 -11 61 -10 65 14 108 32 55 33 80 6 80 -22 0 -108 -40 -152 -71
-41 -30 -74 -24 -126 22 -56 49 -99 73 -107 59 -3 -5 0 -30 6 -55 9 -35 9 -52
0 -72 -13 -28 -6 -154 10 -185 9 -16 -6 -28 -36 -28 -21 0 -68 -20 -62 -26 3
-3 28 1 56 10 28 8 51 11 51 7 0 -4 -19 -14 -43 -21 -23 -7 -36 -15 -29 -17 7
-3 26 0 43 6 30 10 34 8 78 -39 40 -43 53 -50 84 -50 35 0 37 -2 37 -32 1 -47
23 -126 41 -142 15 -14 93 -36 130 -36 12 0 30 -7 40 -16 14 -12 41 -15 141
-14 67 1 197 1 288 -1 274 -6 389 -4 400 7 8 8 22 6 48 -7 20 -11 43 -17 52
-15 17 5 227 20 250 18 8 -1 56 -4 105 -6 50 -3 110 -9 134 -15 24 -5 49 -7
56 -4 7 2 28 -3 47 -13 38 -20 163 -27 273 -15 125 14 247 93 328 213 42 62
63 171 52 266 -9 74 -59 181 -120 257 -44 54 -71 80 -198 187 -51 43 -77 95
-77 157 0 48 2 51 46 82 63 43 141 70 172 58 64 -25 122 0 122 53 0 30 -14 43
-81 75 -59 27 -160 30 -222 8z m218 -33 c51 -28 65 -52 45 -77 -9 -11 -27 -13
-76 -8 -71 7 -125 -6 -186 -44 -48 -29 -70 -73 -70 -135 1 -59 26 -94 134
-190 89 -78 138 -127 138 -138 0 -5 18 -29 39 -54 24 -28 46 -68 57 -103 23
-77 23 -213 0 -273 -15 -40 -120 -190 -139 -198 -4 -2 -20 -14 -35 -27 -38
-32 -128 -55 -214 -55 -80 0 -190 22 -225 45 -25 17 -74 20 -89 6 -10 -9 -204
2 -223 13 -6 4 -11 14 -11 22 0 21 -18 17 -25 -5 -5 -17 -20 -20 -128 -26
-139 -8 -162 -6 -162 15 0 11 17 17 60 23 111 16 105 12 105 62 0 25 6 55 13
68 34 62 61 71 104 37 27 -21 63 -27 63 -10 0 12 -35 34 -81 51 -76 26 -114
-17 -121 -136 l-3 -40 -60 -5 c-58 -5 -103 -22 -117 -44 -7 -10 -45 -13 -313
-21 -157 -4 -168 -2 -191 40 -14 26 -95 53 -162 54 -79 1 -63 -22 19 -30 65
-5 119 -24 119 -42 0 -15 -254 -5 -273 12 -12 9 -17 29 -17 61 0 59 -10 111
-20 105 -5 -3 -7 -20 -5 -37 2 -18 1 -57 -2 -85 -6 -61 -8 -61 -92 -34 -53 17
-54 18 -68 71 -19 73 -11 100 37 128 21 12 45 22 53 22 8 0 13 10 13 23 -1 20
3 22 47 20 30 -2 46 1 42 7 -3 6 -19 10 -36 10 -16 0 -29 5 -29 10 0 25 32 70
53 74 12 3 64 15 116 26 194 44 708 25 1006 -36 145 -30 207 -49 260 -82 56
-34 76 -57 114 -134 18 -37 39 -72 47 -79 24 -20 87 -31 173 -30 69 0 94 5
136 25 53 26 153 115 173 153 17 31 15 123 -4 197 -15 62 -20 67 -167 217
-180 183 -227 253 -227 338 0 116 92 227 213 257 85 20 136 17 192 -14z
m-2328 -648 c61 -52 89 -55 135 -16 41 36 122 75 126 62 2 -5 -9 -32 -24 -60
-26 -47 -27 -54 -14 -83 7 -18 14 -49 14 -71 1 -37 0 -38 -34 -41 -19 -2 -52
-11 -73 -20 -28 -11 -42 -13 -52 -5 -9 7 -16 6 -25 -5 -13 -16 -46 -20 -54 -7
-2 4 -19 9 -37 10 -18 1 -35 4 -36 6 -2 2 -7 36 -12 76 -6 59 -5 75 8 87 13
14 13 22 0 74 -15 57 -15 58 5 47 12 -6 44 -30 73 -54z m228 -233 c9 -16 -17
-25 -61 -22 -23 1 -45 -2 -49 -8 -4 -7 10 -11 40 -11 33 0 45 -4 42 -12 -2 -8
-19 -12 -43 -11 -38 2 -38 2 -14 -11 l24 -14 -34 -21 c-20 -12 -52 -21 -74
-21 -33 0 -45 7 -79 42 -40 42 -40 42 -16 48 13 4 44 5 68 3 25 -2 50 2 59 9
32 27 125 47 137 29z"/>
<path d="M310 1015 c0 -4 7 -19 15 -34 16 -32 43 -47 59 -31 7 7 -1 19 -24 40
-34 28 -50 36 -50 25z"/>
<path d="M548 1002 c-16 -9 -28 -21 -28 -27 0 -20 40 -14 55 8 28 40 17 47
-27 19z"/>
<path d="M390 890 c-37 -37 -21 -92 27 -96 15 -1 36 -5 45 -9 39 -16 73 59 48
105 -9 17 -14 18 -35 8 -19 -9 -28 -9 -37 0 -17 17 -25 15 -48 -8z m46 -25 c8
-32 -1 -55 -21 -55 -22 0 -30 27 -17 56 15 31 30 31 38 -1z m62 -14 c4 -22
-13 -51 -29 -51 -11 0 -12 63 -2 74 12 12 28 0 31 -23z"/>
<path d="M301 806 c9 -9 109 -44 104 -36 -7 12 -71 40 -91 40 -9 0 -15 -2 -13
-4z"/>
<path d="M390 690 c0 -5 16 -10 35 -10 19 0 35 5 35 10 0 6 -16 10 -35 10 -19
0 -35 -4 -35 -10z"/>
</g>
</svg>
