<svg version="1.0" xmlns="http://www.w3.org/2000/svg"
 width="250.000000pt" height="250.000000pt" viewBox="0 0 566.000000 645.000000"
 preserveAspectRatio="xMidYMid meet">
<g transform="translate(0.000000,645.000000) scale(0.100000,-0.100000)"
fill="#000000" stroke="none">
<path d="M2790 6165 c-85 -16 -208 -60 -274 -99 -48 -28 -185 -164 -235 -233
-42 -58 -138 -257 -153 -318 -7 -27 -16 -53 -21 -56 -5 -3 -11 -58 -14 -121
-4 -106 -2 -124 28 -238 17 -68 38 -130 46 -138 7 -8 23 -32 34 -53 11 -22 34
-57 52 -77 18 -20 39 -47 47 -59 8 -11 37 -50 64 -85 27 -34 50 -70 51 -79 1
-9 13 -30 28 -45 66 -72 81 -93 113 -161 19 -40 38 -74 43 -78 44 -27 6 -333
-49 -397 -97 -110 -160 -191 -160 -202 0 -3 -26 -58 -58 -123 -150 -306 -164
-370 -203 -898 -12 -161 -8 -366 10 -540 5 -49 17 -171 26 -270 9 -99 20 -196
24 -215 5 -19 14 -69 21 -110 7 -41 21 -94 31 -117 11 -24 19 -55 19 -71 0
-15 8 -38 17 -122 15 -21 26 -85 25 -149 0 -13 9 -39 19 -58 11 -19 20 -49 20
-66 4 -158 -8 -355 -35 -587 -14 -124 -9 -154 28 -164 32 -9 74 46 102 134 38
117 94 339 94 371 0 34 -3 33 46 13 30 -13 65 -15 164 -12 l125 3 3 -25 c2
-14 12 -59 23 -100 10 -41 30 -131 44 -199 14 -69 29 -127 33 -130 5 -4 17
-20 27 -38 23 -39 92 -62 103 -35 9 22 8 114 -2 479 -4 166 -5 311 -1 322 3
12 13 21 21 21 8 0 12 4 9 10 -3 5 -1 19 6 31 16 31 76 199 105 294 13 44 33
107 43 140 11 33 27 116 36 184 9 69 18 128 21 133 9 14 4 716 -6 922 -6 110
-17 242 -25 291 -8 50 -17 133 -20 185 -4 60 -11 99 12 105 -7 6 -16 24 -20
40 -7 30 -86 192 -121 250 -10 17 -44 52 -77 78 -41 32 -66 65 -85 105 -14 32
-30 60 -35 63 -5 3 -4 43 3 92 10 68 10 99 1 145 -7 32 -12 71 -12 88 0 39
-32 149 -59 202 -12 23 -37 81 -57 129 -19 48 -52 111 -74 140 -22 28 -40 62
-41 75 -1 32 -14 63 -28 64 -6 1 -15 2 -21 3 -5 0 -10 6 -10 12 0 8 5 8 15 -1
9 -7 15 -8 15 -2 0 5 -17 19 -37 29 -35 19 -69 66 -88 124 -4 13 -8 26 -9 29
-17 38 -27 72 -50 165 -15 61 -31 124 -37 142 -7 23 -7 45 2 75 16 60 33 98
41 98 5 0 8 6 8 13 0 17 69 127 80 127 5 0 25 15 45 33 20 19 67 48 103 66 37
18 74 36 82 40 8 5 47 14 85 21 39 8 75 18 82 23 16 12 72 -7 152 -50 158 -87
217 -195 157 -284 -48 -71 -43 -113 17 -149 40 -25 63 -25 119 0 61 27 80 46
113 115 26 53 29 71 29 150 -1 69 -6 103 -23 144 -27 67 -108 194 -120 187 -4
-3 -22 10 -39 29 -16 19 -34 35 -38 35 -4 0 -22 11 -41 26 -62 47 -153 82
-228 88 -38 3 -99 7 -135 10 -36 2 -99 -2 -140 -9z m288 -17 c30 2 53 -5 82
-23 22 -14 43 -25 48 -25 5 0 30 -20 56 -45 27 -25 52 -45 56 -45 17 0 98
-101 123 -152 42 -87 77 -203 77 -257 0 -72 -47 -144 -121 -189 -44 -27 -57
-27 -86 -3 -34 28 -31 82 9 144 30 47 31 51 19 96 -21 83 -118 201 -165 201
-9 0 -35 8 -59 29 -80 35 -156 42 -244 20 -43 -10 -86 -19 -95 -19 -17 0 -110
-58 -116 -72 -2 -5 -8 -6 -12 -3 -5 3 -51 -36 -102 -87 -124 -124 -143 -170
-143 -343 0 -92 5 -130 18 -165 10 -25 19 -51 19 -57 1 -7 5 -13 10 -13 4 0 7
-3 7 -7 -1 -5 0 -10 1 -13 1 -3 3 -12 5 -21 1 -9 14 -34 28 -55 13 -22 35 -63
47 -92 12 -29 26 -52 30 -52 9 0 56 -91 53 -102 -1 -3 16 -26 37 -50 22 -23
43 -52 46 -63 12 -39 65 -145 73 -145 10 0 46 -123 61 -210 14 -82 17 -246 6
-327 -6 -46 -5 -63 4 -63 10 0 66 -54 142 -136 14 -16 37 -39 51 -52 30 -29
103 -176 119 -239 6 -26 19 -66 29 -88 10 -22 20 -60 23 -85 3 -25 9 -61 14
-80 5 -19 9 -37 9 -40 5 -32 17 -97 28 -150 31 -146 45 -912 20 -1100 -22
-162 -44 -280 -61 -317 -8 -17 -14 -47 -14 -67 0 -84 -97 -396 -123 -396 -7 0
-19 37 -29 87 -12 58 -34 121 -68 189 -27 57 -50 106 -50 110 0 4 8 25 19 48
29 63 53 144 47 155 -15 23 -78 -9 -153 -78 -43 -40 -89 -74 -103 -77 -14 -3
-33 -9 -42 -14 -9 -5 -36 -13 -58 -16 -29 -5 -38 -10 -31 -17 7 -7 25 -7 58 2
43 11 87 14 141 10 9 -1 25 2 35 6 48 20 153 -163 182 -318 l6 -33 -96 -17
c-97 -17 -173 -42 -162 -53 3 -3 25 1 49 9 24 9 78 24 122 33 88 19 96 15 96
-42 0 -22 -6 -34 -22 -42 l-23 -11 23 0 c22 -1 23 -4 17 -43 -10 -58 -22 -78
-48 -79 -17 -1 -18 -2 -4 -6 26 -7 21 -16 -27 -61 -72 -66 -245 -106 -348 -81
-59 14 -114 66 -154 144 -31 63 -28 80 18 90 18 4 66 18 107 32 72 24 101 25
101 3 0 -6 -6 -8 -12 -4 -9 6 -9 3 0 -9 17 -20 8 -37 -21 -38 -20 -1 -20 -2 3
-9 36 -12 98 -12 105 0 4 6 -1 24 -9 42 -15 29 -15 33 0 50 21 22 16 23 -24 2
-28 -14 -33 -14 -56 1 -21 14 -45 16 -141 13 l-115 -5 6 106 c7 131 23 183 74
245 45 54 49 72 20 81 -11 3 -20 11 -20 16 0 5 -11 14 -25 19 -14 5 -25 14
-25 20 0 19 25 10 53 -19 29 -31 64 -48 75 -36 4 4 -1 12 -12 19 -10 6 -35 29
-55 50 -61 66 -83 87 -86 84 -2 -2 3 -57 10 -122 12 -112 12 -121 -7 -163 -16
-36 -48 -187 -48 -225 0 -5 -7 -8 -15 -8 -8 0 -15 8 -15 17 0 9 -17 53 -39 97
-21 45 -42 97 -46 116 -4 19 -11 40 -15 45 -17 23 -53 228 -70 405 -7 63 -16
156 -21 205 -5 50 -12 180 -15 290 -5 174 -2 226 20 405 13 113 27 216 30 230
3 14 9 41 12 60 9 54 46 194 54 205 4 6 13 28 20 49 11 34 44 109 69 156 4 8
21 42 37 75 16 33 34 67 41 75 7 9 28 47 48 85 20 39 42 75 48 80 14 13 34 42
46 72 6 11 14 24 19 27 6 3 8 15 5 26 -3 11 0 20 6 20 14 0 37 56 58 139 14
54 14 73 4 130 -20 108 -68 229 -116 295 -25 33 -45 67 -45 76 0 8 -10 22 -21
30 -32 23 -49 40 -49 52 0 6 10 3 23 -8 l22 -19 -19 22 c-10 12 -22 21 -26 20
-8 -2 -60 57 -60 69 0 5 -32 43 -72 84 -68 71 -106 134 -112 183 -1 12 -8 35
-14 51 -9 21 -10 61 -3 160 13 170 19 210 43 276 10 30 23 74 28 98 5 24 19
55 30 69 11 14 20 34 20 44 0 11 4 19 8 19 5 0 19 22 32 49 12 27 33 54 46 60
13 6 24 14 24 19 0 19 150 155 191 173 24 11 58 31 76 45 51 39 171 63 278 56
50 -3 109 -5 133 -4z m-670 -5125 c6 -15 12 -31 12 -37 0 -5 18 -34 41 -63 28
-37 38 -60 33 -71 -4 -9 -8 -39 -10 -67 -5 -62 -50 -245 -74 -299 -10 -23 -24
-56 -30 -73 -8 -22 -19 -33 -32 -33 -14 0 -18 5 -14 15 21 56 63 396 50 416
-3 6 -10 58 -15 117 -6 80 -5 108 4 114 18 12 21 10 35 -19z m661 -250 c0
-104 4 -236 9 -294 9 -112 6 -179 -9 -179 -5 0 -9 6 -9 14 0 8 -17 32 -38 54
-28 29 -43 57 -55 103 -70 267 -88 369 -67 369 6 0 35 11 65 24 43 20 56 32
66 60 7 20 19 36 25 36 10 0 13 -46 13 -187z"/>
<path d="M2587 1412 c-47 -49 -48 -136 -2 -186 21 -23 27 -25 52 -15 15 6 38
20 51 31 l22 21 23 -21 c69 -65 156 30 121 131 -25 73 -66 86 -116 37 -33 -34
-38 -36 -38 -17 0 21 -34 47 -61 47 -15 0 -37 -12 -52 -28z m87 2 c9 -9 16
-32 16 -55 0 -31 -4 -39 -19 -39 -30 0 -46 -26 -33 -55 10 -23 9 -25 -11 -25
-44 0 -76 102 -44 142 14 17 58 48 69 48 3 0 14 -7 22 -16z"/>
</g>
</svg>
